<svg width="40" height="40" viewBox="0 0 40 40" fill="none" xmlns="http://www.w3.org/2000/svg">
<path d="M20.1406 40C30.7117 40 39.2812 31.0457 39.2812 20C39.2812 8.9543 30.7117 0 20.1406 0C9.56955 0 1 8.9543 1 20C1 31.0457 9.56955 40 20.1406 40Z" fill="#E88102"/>
<path d="M20.1406 37.8906C30.6038 37.8906 39.0859 29.4085 39.0859 18.9453C39.0859 8.48211 30.6038 0 20.1406 0C9.67742 0 1.19531 8.48211 1.19531 18.9453C1.19531 29.4085 9.67742 37.8906 20.1406 37.8906Z" fill="#FDD835"/>
<path opacity="0.5" d="M27.7031 1.57031L2.76562 26.5C1.92969 24.5859 1.40625 22.5078 1.25 20.3281L21.5234 0.046875C23.7031 0.210937 25.7812 0.734375 27.7031 1.57031Z" fill="white"/>
<path opacity="0.5" d="M36.6484 9.64844L10.8437 35.4531C9.23437 34.5469 7.78125 33.4141 6.50781 32.0937L33.2969 5.3125C34.6094 6.57812 35.7422 8.03906 36.6484 9.64844Z" fill="white"/>
<path opacity="0.5" d="M32.5234 4.60156L5.80469 31.3203C5.39062 30.8359 4.99219 30.3281 4.625 29.8047L31.0078 3.42188C31.5312 3.78906 32.0391 4.1875 32.5234 4.60156Z" fill="white"/>
<path opacity="0.5" d="M38.4922 14.2188L15.4141 37.2969C14.7188 37.1172 14.0391 36.8984 13.375 36.6484L37.8438 12.1797C38.0938 12.8438 38.3125 13.5234 38.4922 14.2188Z" fill="white"/>
<path opacity="0.5" d="M39.0859 18.9453C39.0859 19.0781 39.0859 19.2031 39.0781 19.3359C38.875 9.05469 30.4766 0.78125 20.1406 0.78125C9.80469 0.78125 1.40625 9.05469 1.20313 19.3359C1.20313 19.2031 1.19531 19.0781 1.19531 18.9453C1.19531 8.48438 9.67969 0 20.1406 0C30.6016 0 39.0859 8.48438 39.0859 18.9453Z" fill="white"/>
<path opacity="0.5" d="M35.5312 19.7656C35.5312 27.9609 28.8828 34.6094 20.6875 34.6094C16.0859 34.6094 11.9688 32.5078 9.24219 29.2188C11.9531 32.1484 15.8281 33.9844 20.1406 33.9844C28.3359 33.9844 34.9844 27.3359 34.9844 19.1406C34.9844 15.5469 33.7109 12.2578 31.5859 9.6875C34.0312 12.3359 35.5312 15.875 35.5312 19.7656Z" fill="white"/>
<path d="M20.1406 33.9844C28.3386 33.9844 34.9844 27.3386 34.9844 19.1406C34.9844 10.9426 28.3386 4.29688 20.1406 4.29688C11.9426 4.29688 5.29688 10.9426 5.29688 19.1406C5.29688 27.3386 11.9426 33.9844 20.1406 33.9844Z" fill="#F39E09"/>
<path d="M31.3906 9.45312C28.7891 7.21094 25.4062 5.85938 21.7031 5.85938C13.5078 5.85938 6.85938 12.5078 6.85938 20.7031C6.85938 24.4062 8.21094 27.7891 10.4531 30.3906C7.29687 27.6641 5.29688 23.6406 5.29688 19.1406C5.29688 10.9453 11.9453 4.29688 20.1406 4.29688C24.6328 4.29688 28.6641 6.29687 31.3906 9.45312Z" fill="#E88102"/>
<path d="M19.2109 15.3594C18.9453 15.6641 18.8047 16.0859 18.8047 16.625C18.8047 17.1641 18.9609 17.6094 19.2734 17.9297C19.5859 18.25 20.0859 18.5547 20.7734 18.8516C21.4609 19.1406 22.1094 19.4453 22.7188 19.7578C23.3281 20.0703 23.8516 20.4297 24.2969 20.8281C24.7422 21.2266 25.0859 21.6953 25.3359 22.2266C25.4297 22.4297 25.7109 22.8125 25.7109 22.8125C25.7109 22.8125 25.7109 24.1094 25.7109 24.1484C25.7109 25.4141 25.3125 26.4453 24.5078 27.2422C23.7031 28.0391 22.6172 28.5078 21.2344 28.6406V30.8594H19.4688V28.6172C17.8594 28.4453 16.625 27.8984 15.7578 26.9609C14.8984 26.0234 14.4688 24.7969 14.4688 23.2656V22.0937L18.2031 23.2656C18.2031 24.1094 18.3906 24.75 18.7656 25.1875C19.1406 25.625 19.6719 25.8438 20.3594 25.8438C20.8594 25.8438 21.2578 25.6953 21.5469 25.3906C21.8359 25.0859 21.9766 24.6797 21.9766 24.1563C21.9766 23.5703 21.8359 23.1172 21.5469 22.7812C21.2578 22.4453 20.75 22.1328 20.0313 21.8359C19.3047 21.5391 18.6406 21.2422 18.0234 20.9375C17.4062 20.6328 16.8828 20.2812 16.4375 19.8828C15.9922 19.4844 15.6563 19.0234 15.4141 18.5C15.1797 17.9766 15.0625 17.3437 15.0625 16.5937V15.3516C15.0625 15.3516 15.7578 14.0469 16.3281 13.5078C17.1719 12.6953 18.2969 12.2266 19.6953 12.0938V9.76562H21.4609V12.1484C22.8125 12.3516 23.875 12.9062 24.6484 13.8203C25.1797 14.4453 25.8047 16.125 25.8047 16.125V17.2969H22.0547C22.0547 16.5312 21.9062 15.9375 21.6094 15.5234C21.3125 15.1094 20.8906 14.9062 20.3438 14.9062C19.8594 14.8984 19.4844 15.0547 19.2109 15.3594Z" fill="#DB6704"/>
<path d="M24.2969 19.6562C23.8516 19.2578 23.3281 18.8984 22.7188 18.5859C22.3203 18.3828 21.8984 18.1797 21.4609 17.9766V14.1562C21.5156 14.2109 21.5703 14.2734 21.6172 14.3438C21.9141 14.7578 22.0625 15.3516 22.0625 16.1172H25.8125C25.8125 14.7109 25.4297 13.5547 24.6562 12.6406C23.8828 11.7266 22.8203 11.1719 21.4688 10.9687V8.59375H19.7031V10.9297C18.2969 11.0625 17.1719 11.5312 16.3359 12.3438C15.5 13.1562 15.0625 14.1875 15.0625 15.4297C15.0625 16.1797 15.1797 16.8125 15.4141 17.3359C15.6484 17.8594 15.9922 18.3203 16.4375 18.7188C16.8828 19.1172 17.4062 19.4688 18.0234 19.7734C18.4766 20 18.9609 20.2188 19.4766 20.4375V24.5156C19.2031 24.4062 18.9688 24.2422 18.7734 24.0078C18.3984 23.5703 18.2109 22.9297 18.2109 22.0859H14.4766C14.4766 23.6172 14.9062 24.8516 15.7656 25.7812C16.625 26.7109 17.8594 27.2656 19.4766 27.4375V29.6875H21.2422V27.4609C22.625 27.3281 23.7188 26.8594 24.5156 26.0625C25.3203 25.2656 25.7188 24.2344 25.7188 22.9688C25.7188 22.2266 25.5938 21.5859 25.3438 21.0547C25.0938 20.5234 24.7422 20.0547 24.2969 19.6562ZM18.8125 15.4531C18.8125 14.9141 18.9453 14.4922 19.2188 14.1875C19.3516 14.0391 19.5156 13.9219 19.7031 13.8438V17.1094C19.5391 16.9922 19.3984 16.875 19.2812 16.7578C18.9688 16.4375 18.8125 16 18.8125 15.4531ZM21.5469 24.2266C21.4531 24.3203 21.3516 24.3984 21.2344 24.4688V21.3281C21.3594 21.4219 21.4609 21.5156 21.5469 21.6172C21.8359 21.9531 21.9766 22.4062 21.9766 22.9922C21.9766 23.5156 21.8359 23.9297 21.5469 24.2266Z" fill="#FDD835"/>
<path opacity="0.5" d="M16.3281 12.3438C16.7813 11.9062 17.3203 11.5703 17.9375 11.3281L15.2891 13.9844C15.4922 13.3594 15.8359 12.8203 16.3281 12.3438Z" fill="white"/>
<path opacity="0.5" d="M20.6719 8.59375L19.6953 9.57031V8.59375H20.6719Z" fill="white"/>
<path opacity="0.5" d="M25.3047 20.9922L18.9219 27.375C17.5781 27.1484 16.5234 26.6172 15.7656 25.7969C15.2734 25.2578 14.9219 24.625 14.7109 23.8984L16.5078 22.1016H18.2109C18.2109 22.9453 18.3984 23.5859 18.7734 24.0234C19.1484 24.4609 19.6797 24.6797 20.3672 24.6797C20.8672 24.6797 21.2656 24.5313 21.5547 24.2266C21.8438 23.9219 21.9844 23.5156 21.9844 22.9922C21.9844 22.4062 21.8438 21.9531 21.5547 21.6172C21.2656 21.2813 20.7578 20.9688 20.0391 20.6719C19.5234 20.4609 19.0391 20.25 18.5781 20.0312L20.8906 17.7188C21.5391 18 22.1484 18.2813 22.7266 18.5781C23.3359 18.8906 23.8594 19.25 24.3047 19.6484C24.7266 20.0391 25.0625 20.4844 25.3047 20.9922Z" fill="white"/>
<path opacity="0.5" d="M25.8047 16.1172H22.4844L25.1797 13.4219C25.5938 14.1875 25.8047 15.0859 25.8047 16.1172Z" fill="white"/>
<path opacity="0.5" d="M14.4766 22.0938H15.0313L14.5 22.625C14.4844 22.4531 14.4766 22.2734 14.4766 22.0938Z" fill="white"/>
<path opacity="0.5" d="M19.2734 16.7578C19.4297 16.9219 19.6328 17.0781 19.8906 17.2344L17.5781 19.5469C17.1484 19.3047 16.7656 19.0313 16.4375 18.7266C16.3047 18.6094 16.1875 18.4844 16.0781 18.3594L18.8203 15.6172C18.8438 16.0859 19 16.4688 19.2734 16.7578Z" fill="white"/>
<path opacity="0.5" d="M24.5703 12.5547L21.9609 15.1641C21.8906 14.8438 21.7734 14.5703 21.6172 14.3516C21.3828 14.0234 21.0703 13.8281 20.6797 13.7578L23.0156 11.4219C23.6172 11.6953 24.1328 12.0703 24.5703 12.5547Z" fill="white"/>
<path opacity="0.5" d="M20.3281 29.6875L21.2344 28.7812V29.6875H20.3281Z" fill="white"/>
<path opacity="0.5" d="M25.4688 24.5469C25.2734 25.125 24.9531 25.625 24.5156 26.0625C24.0781 26.5 23.5547 26.8359 22.9453 27.0703L25.4688 24.5469Z" fill="white"/>
<path opacity="0.25" d="M32.5234 10.9453C22.9141 14.3203 15.1953 21.7344 11.4141 31.1484C11.0859 30.9063 10.7656 30.6563 10.4531 30.3828C8.21094 27.7813 6.85938 24.3984 6.85938 20.7031C6.85938 12.5078 13.5078 5.85938 21.7031 5.85938C25.4062 5.85938 28.7891 7.21094 31.3828 9.45313C31.7969 9.92969 32.1719 10.4297 32.5234 10.9453Z" fill="white"/>
</svg>
