<svg width="127" height="223" viewBox="0 0 127 223" fill="none" xmlns="http://www.w3.org/2000/svg">
<path d="M27.6371 217.249L24.759 221.738C9.99174 219.575 2.7295 214.904 1.72884 208.074C0.951095 202.779 3.50724 197.75 7.55448 193.267C7.82198 197.058 9.81836 202.323 18.0416 205.273C15.0793 208.391 12.112 211.845 12.5826 212.77C13.9746 215.502 27.6321 217.249 27.6321 217.249H27.6371Z" fill="#C8D89D"/>
<path d="M82.837 184.952C86.0372 211.647 63.6312 224 38.1342 222.916C33.1358 222.708 28.6823 222.307 24.7639 221.733L27.642 217.244C27.642 217.244 13.9845 215.492 12.5925 212.766C12.1219 211.84 15.0842 208.386 18.0515 205.268C23.0895 207.079 30.4707 208.015 41.2253 207.208C76.5804 204.545 74.0936 179.152 57.7313 175.104C49.5922 173.09 41.6266 173.723 36.1378 174.688C36.544 174.515 36.8363 174.401 36.9849 174.337C39.2785 173.426 79.6419 158.258 82.842 184.947L82.837 184.952Z" fill="#D6D450"/>
<path d="M41.2154 207.213C30.4607 208.02 23.0796 207.084 18.0416 205.273C20.7959 202.383 23.5453 199.794 23.5453 199.794C23.5453 199.794 14.9554 198.359 13.4594 194.37C12.5727 192.01 16.9766 186.675 20.7167 182.73C27.3745 178.568 33.7649 175.703 36.1279 174.698C41.6117 173.733 49.5823 173.1 57.7214 175.114C74.0837 179.162 76.5656 204.555 41.2154 207.218V207.213Z" fill="#B9E246"/>
<path d="M23.5453 199.789C23.5453 199.789 20.7959 202.383 18.0416 205.268C9.81836 202.323 7.82198 197.058 7.55448 193.262C11.1856 189.238 16.0155 185.655 20.7216 182.72C16.9815 186.67 12.5776 192 13.4643 194.36C14.9554 198.349 23.5502 199.784 23.5502 199.784L23.5453 199.789Z" fill="#DBE2BB"/>
<path d="M52.8221 197.592C52.8221 197.592 53.5156 211.454 50.9743 223H40.3386C40.3386 223 39.0754 211.721 45.3122 216.185C45.3122 216.185 48.2002 212.028 49.3594 197.592H52.8271H52.8221Z" fill="#242309"/>
<path d="M85.0415 195.434C85.0415 195.434 83.4909 198.592 83.5009 200.057C83.5454 205.619 85.7251 215.21 90.9761 223.005H101.003C101.003 223.005 101.959 211.919 94.097 216.23C94.097 216.23 84.7343 203.754 87.5778 197.597L85.0365 195.439L85.0415 195.434Z" fill="#242309"/>
<path d="M59.3264 106.135L55.2395 118.052C51.98 118.829 46.1395 121.111 41.2154 124.704C34.9786 129.262 30.218 135.913 34.0522 144.267C31.1543 145.856 29.3709 148.746 28.3752 150.948C17.462 133.003 32.4324 119.933 45.0992 112.693C52.619 108.387 59.3215 106.14 59.3215 106.14L59.3264 106.135Z" fill="#B9E246"/>
<path d="M45.1041 112.693C52.624 108.387 59.3264 106.14 59.3264 106.14L55.2395 118.057C51.98 118.834 46.1395 121.116 41.2154 124.709C41.8544 121.759 43.1226 116.899 45.0992 112.693L45.1041 112.693Z" fill="#D6D450"/>
<path d="M106.259 125.634C104.153 125.733 101.26 126.238 99.0458 128.064C96.886 124.659 93.2647 122.447 89.8764 121.051C85.5022 119.245 81.5094 118.775 81.5094 118.775L78.2647 107.719C78.2647 107.719 80.1422 108.1 82.9559 108.981C89.698 111.084 101.84 116.088 106.259 125.634Z" fill="#B9E246"/>
<path d="M91.8678 121.051C87.4936 119.245 83.5008 118.775 83.5008 118.775L80.2561 107.719C80.2561 107.719 82.1336 108.1 84.9473 108.981C86.8001 111.624 89.9606 116.449 91.8678 121.051Z" fill="#D6D450"/>
<path d="M101.513 184.057C98.5157 198.795 87.5729 202.348 83.4265 200.151C78.2598 197.409 81.1082 187.595 73.8162 180.553C66.336 185.982 61.1494 181.904 61.1494 181.904C52.0741 190.386 54.1348 197.201 49.4634 200.21C44.792 203.214 34.6566 200.606 31.1939 185.145C27.7263 169.69 39.6005 159.094 39.6005 159.094C36.1824 141.753 40.9033 124.432 45.2527 113.287C48.2002 105.754 50.9694 101.048 50.9694 101.048L75.2825 103.874C77.0114 106.249 78.5619 108.59 79.949 110.886C95.4494 136.611 90.2033 156.778 90.2033 156.778C94.7756 160.237 104.51 169.324 101.508 184.062L101.513 184.057Z" fill="#B9E246"/>
<path d="M101.513 184.057C98.5157 198.795 87.5729 202.348 83.4265 200.151C78.2598 197.409 81.1082 187.595 73.8162 180.553C66.336 185.982 61.1494 181.904 61.1494 181.904C52.0741 190.386 54.1348 197.201 49.4634 200.21C44.792 203.214 34.6566 200.606 31.1939 185.145C30.5103 182.102 30.4211 179.256 30.7332 176.638C30.8323 177.39 31.0156 178.167 31.288 178.959C34.83 189.243 45.2329 193.143 49.9093 191.208C56.8892 188.313 55.2346 185.675 61.5655 179.989C61.5655 179.989 66.4549 182.988 73.9054 179.424C81.232 184.136 78.4084 187.353 83.59 189.189C87.7462 190.673 98.6693 188.372 101.597 178.593C101.79 177.96 101.919 177.341 102.003 176.732C102.172 178.989 102.043 181.439 101.513 184.062L101.513 184.057Z" fill="#D6D450"/>
<path d="M82.2228 114.87C79.6914 116.939 73.7766 117.78 71.3046 124.724C70.0612 128.218 65.5929 129.193 62.9674 126.57C58.6477 122.259 51.8858 119.057 44.7375 114.652C47.6801 107.12 50.9793 101.043 50.9793 101.043L75.2924 103.869C77.0213 106.244 80.1372 110.278 82.2277 114.87H82.2228Z" fill="#D6D450"/>
<path d="M68.2432 179.236C62.2888 179.81 49.4486 177.222 43.3653 160.608C38.0797 146.177 44.0787 127.173 49.0572 115.395C51.8413 108.803 54.3132 104.477 54.3132 104.477L72.5679 100.597C72.5679 100.597 73.2812 101.726 74.3859 103.765C75.4955 105.779 76.9767 108.694 78.5669 112.282C82.6092 121.462 87.2459 135.136 87.5382 149.953C87.9295 169.977 74.5048 178.633 68.2432 179.231V179.236Z" fill="#DBE2BB"/>
<path d="M68.2432 179.236C62.2888 179.81 49.4486 177.222 43.3653 160.608C41.6959 156.046 41.151 151.027 41.3392 145.92C47.9971 161.742 61.3674 164.246 67.619 163.682C73.1326 163.192 83.8129 157.273 87.1964 144.054C87.3896 145.989 87.4986 147.959 87.5431 149.953C87.9345 169.977 74.5097 178.633 68.2482 179.231L68.2432 179.236Z" fill="#C8D89D"/>
<path d="M80.1769 116.122C76.1296 118.414 69.6204 130.435 65.9744 131.118C64.082 131.469 53.9912 120.309 48.4578 116.934C51.2418 110.342 54.3132 104.472 54.3132 104.472L63.5768 102.508L74.3909 103.76C75.5005 105.774 78.5917 112.529 80.1818 116.117L80.1769 116.122Z" fill="#C8D89D"/>
<path d="M69.5708 152.853C68.9367 154.007 62.1402 153.744 62.1402 153.744C56.9932 158.188 46.9321 162.167 33.6114 154.957C31.5902 153.863 29.8713 152.502 28.3851 150.948C29.3808 148.741 31.1592 145.856 34.0522 144.267C46.3525 155.655 57.3647 147.479 57.3647 147.479C57.3647 147.479 61.8182 142.278 56.3987 135.359C62.051 131.974 63.1507 138.63 62.9922 141.713C70.8638 140.288 72.8849 146.831 69.5758 152.849L69.5708 152.853Z" fill="#242309"/>
<path d="M93.2746 153.304C102.023 153.304 112.758 141.416 106.254 125.639C104.153 125.733 101.255 126.243 99.0458 128.064C104.153 139.313 94.5329 146.009 94.5329 146.009C94.5329 146.009 87.8106 139.719 86.3295 144.935C84.8483 150.151 88.9698 153.299 93.2746 153.299V153.304Z" fill="#242309"/>
<path d="M124.543 97.4846C124.543 97.4846 81.9057 102.547 65.9694 124.615C65.9694 124.615 37.6388 98.4199 0.019785 103.112C0.019785 103.112 28.4594 68.5332 64.2752 89.8533C64.2752 89.8533 88.9005 67.8057 124.548 97.4846H124.543Z" fill="#DBE2BB"/>
<path d="M116.701 49.4599C103.361 32.48 87.2063 26.0958 78.0913 23.7302C91.4764 1.80142 122.205 -0.658216 126.173 3.59789C128.833 6.44849 124.9 33.1382 116.701 49.4648V49.4599Z" fill="#B9E246"/>
<path d="M118.004 9.79398C121.694 12.5555 114.313 48.4899 108.052 49.346C101.79 50.2022 89.5197 34.7516 89.9606 30.1589C90.4015 25.5663 100.027 26.3581 100.027 26.3581L92.0808 21.9239L104.762 17.8113L98.164 14.8617C98.164 14.8617 113.62 6.51282 118.004 9.78903V9.79398Z" fill="#D6D450"/>
<path d="M116.701 49.4599C114.303 54.2406 111.524 58.1304 108.453 60.2733C102.4 64.475 90.1785 60.1645 80.2215 51.098C75.7878 47.0497 71.6068 36.7361 74.8466 30.3668C75.7531 27.9814 76.8479 25.7692 78.0913 23.7302C87.2063 26.0958 103.361 32.4849 116.701 49.4599Z" fill="#D6D450"/>
<path d="M44.9258 24.2152C25.8835 30.6885 13.8359 41.4475 6.24173 52.7856C-0.351749 35.8255 1.49601 3.11784 5.04292 0.668104C9.38243 -2.34086 34.1067 4.7312 44.9258 24.2152Z" fill="#B9E246"/>
<path d="M11.7157 8.45776C7.52476 10.378 7.10864 47.0547 13.0433 49.2223C18.9779 51.39 34.2553 38.8839 34.7953 34.3012C35.3353 29.7185 25.7646 28.4515 25.7646 28.4515L34.4733 25.8039L22.9508 19.098L30.0248 17.6183C30.0248 17.6183 16.6942 6.18124 11.7157 8.45776Z" fill="#D6D450"/>
<path d="M39.868 56.8289C28.2167 63.5891 15.3567 65.2124 10.3336 59.8131C8.70871 58.0661 7.34642 55.656 6.24668 52.7856C13.8408 41.4475 25.8884 30.6885 44.9307 24.2152C47.1302 28.1942 48.7551 32.678 49.5179 37.711C51.3409 44.6148 45.0595 53.815 39.868 56.8289Z" fill="#D6D450"/>
<path d="M124.543 97.4846C91.3674 73.3336 64.2703 89.8532 64.2703 89.8532C28.7517 74.2442 0.019785 103.112 0.019785 103.112C0.019785 103.112 -2.5859 44.2189 51.6431 26.5215C51.6431 26.5215 55.9133 20.5283 64.8796 15.4952L59.2571 25.4475C59.5691 25.2001 64.6567 21.2508 70.7449 19.5484L68.9962 26.2295C68.9962 26.2295 114.591 29.1543 124.543 97.4846Z" fill="#B9E246"/>
<path d="M58.1177 82.9198C58.1177 82.9198 61.2386 46.9755 48.4479 43.6498C30.1932 38.9087 18.9036 71.7351 18.9036 71.7351C18.9036 71.7351 29.8713 83.1177 58.1177 82.9198Z" fill="#D6D450"/>
<path d="M69.5708 82.6971C69.5708 82.6971 64.1613 47.025 76.7142 42.8926C94.632 36.9984 107.987 69.0379 107.987 69.0379C107.987 69.0379 97.7677 81.0936 69.5659 82.6971H69.5708Z" fill="#D6D450"/>
<path d="M60.119 85.899L67.9262 85.6714C69.3033 85.6318 70.0365 87.2699 69.0953 88.2696L65.3205 92.2783C64.7359 92.8969 63.76 92.9266 63.1359 92.3475L59.1035 88.5665C58.0979 87.6262 58.7369 85.9386 60.119 85.899Z" fill="#242309"/>
<path d="M54.3429 82.0191C56.0272 69.6071 52.5893 50.1676 42.87 50.123C30.8967 50.0686 22.1731 70.3098 23.1539 73.5761C24.2339 77.1691 40.4872 82.415 54.3429 82.0191Z" fill="white"/>
<path d="M54.3429 82.0191C56.0272 69.6071 52.5893 50.1676 42.87 50.123C30.8967 50.0686 22.1731 70.3098 23.1539 73.5761C24.2339 77.1691 40.4872 82.415 54.3429 82.0191Z" fill="black"/>
<path d="M52.0394 67.672C51.4895 74.7342 46.4813 80.0989 40.8538 79.6634C35.2263 79.2278 31.1097 73.1456 31.6645 66.0884C32.2144 59.0262 37.2227 53.6615 42.8502 54.097C48.4776 54.5326 52.5942 60.6148 52.0394 67.672Z" fill="#242309"/>
<path d="M51.549 82.509C38.3174 82.2071 23.8029 77.4165 22.6883 73.7147C22.0344 71.5421 24.9125 63.9851 29.1975 58.2641C32.1549 54.3148 36.9254 49.6133 42.8749 49.638C45.2131 49.6479 47.3284 50.712 49.1414 52.7905C54.3726 58.8035 56.1411 72.4032 54.8284 82.0834L54.7739 82.4892L54.3627 82.4991C53.4364 82.5238 52.4952 82.5288 51.549 82.5041V82.509ZM42.9889 50.608C42.9492 50.608 42.9096 50.608 42.87 50.608C37.3267 50.5833 32.7989 55.072 29.9753 58.8431C25.4723 64.8561 23.1589 71.9034 23.6196 73.4326C24.5658 76.5901 40.1107 81.8211 53.9169 81.539C55.1008 72.1063 53.3868 59.145 48.4083 53.424C46.8181 51.5978 44.9951 50.6526 42.9889 50.6031V50.608Z" fill="#242309"/>
<path d="M45.6441 34.1775C45.6144 35.4048 42.8353 36.3402 39.437 36.261C36.0387 36.1818 33.3042 35.1277 33.329 33.8954C33.3538 32.6631 36.1378 31.7327 39.5361 31.8119C42.9344 31.8911 45.6688 32.9452 45.6441 34.1775Z" fill="#242309"/>
<path d="M47.8634 57.8731C47.9476 60.5901 46.3624 62.8468 44.3165 62.9062C42.2706 62.9705 40.5466 60.8177 40.4624 58.1007C40.3782 55.3838 41.9634 53.127 44.0093 53.0677C46.0552 53.0033 47.7792 55.1561 47.8634 57.8731Z" fill="white"/>
<path d="M72.8056 81.4499C71.6663 70.8097 71.9189 49.6133 81.5986 48.7522C93.5223 47.6931 103.876 67.0831 103.172 70.4187C102.4 74.0908 86.6465 80.6828 72.8007 81.4499H72.8056Z" fill="white"/>
<path d="M72.8056 81.4499C71.6663 70.8097 71.9189 49.6133 81.5986 48.7522C93.5223 47.6931 103.876 67.0831 103.172 70.4187C102.4 74.0908 86.6465 80.6828 72.8007 81.4499H72.8056Z" fill="black"/>
<path d="M75.5599 66.9247C76.6993 73.9127 82.1435 78.8418 87.7116 77.9362C93.2796 77.0305 96.8711 70.6266 95.7317 63.6386C94.5924 56.6507 89.1482 51.7215 83.5801 52.6272C78.0121 53.5329 74.4206 59.9368 75.5599 66.9247Z" fill="#242309"/>
<path d="M72.3697 81.9597L72.3202 81.4994C71.4285 73.1901 71.3195 57.4277 76.5507 51.0633C77.9378 49.3807 79.6171 48.4404 81.554 48.2672C87.4787 47.7376 92.6208 52.0185 95.8903 55.7005C100.626 61.0305 104.114 68.3055 103.648 70.5226C102.796 74.5808 86.7109 81.1678 72.8255 81.9349L72.3648 81.9597H72.3697ZM82.7875 49.1976C82.411 49.1877 82.0296 49.1976 81.6432 49.2372C79.9787 49.3856 78.5173 50.2072 77.3037 51.6819C72.3648 57.685 72.4093 72.6705 73.2366 80.9402C87.0032 80.0543 102.018 73.5464 102.697 70.3247C103.024 68.7608 100.141 61.9461 95.167 56.3488C92.2641 53.0825 87.8354 49.3163 82.7875 49.2025V49.1976Z" fill="#242309"/>
<path d="M76.0702 33.1036C76.199 34.326 79.0474 35.0238 82.4308 34.6625C85.8143 34.3012 88.4497 33.0145 88.3159 31.7921C88.1871 30.5697 85.3387 29.8719 81.9553 30.2332C78.5718 30.5944 75.9364 31.8812 76.0702 33.1036Z" fill="#242309"/>
<path d="M82.7181 56.8635C82.8618 59.5805 84.6353 61.6937 86.6762 61.5848C88.7172 61.4759 90.2578 59.1895 90.1141 56.4725C89.9705 53.7556 88.197 51.6424 86.1561 51.7512C84.1151 51.8601 82.5745 54.1465 82.7181 56.8635Z" fill="white"/>
<path d="M63.2052 101.369C55.9727 101.206 50.4047 98.7614 50.3155 98.7218L50.7366 97.7864C50.8753 97.8458 64.7211 103.913 76.8876 97.1926L77.3829 98.0933C72.6124 100.726 67.6042 101.468 63.2052 101.369Z" fill="#242309"/>
</svg>
