<svg width="177" height="156" viewBox="0 0 177 156" fill="none" xmlns="http://www.w3.org/2000/svg">
<path d="M177 137.772C177 149.435 156.055 153.162 156.055 153.162C156.055 153.162 148.791 150.905 147.735 141.395C147.122 135.957 148.547 128.15 154.514 117.046C154.871 117.181 160.434 119.28 165.936 122.863C171.499 126.497 177 131.636 177 137.776V137.772Z" fill="#DBE2BB"/>
<path d="M167.007 144.199C167.057 146.514 152.891 149.028 152.891 149.028L156.051 153.162C150.003 154.326 144.016 154.822 140.2 155.179C124.512 156.637 102.899 150.917 100.422 133.839C97.7744 115.521 110.093 108.835 130.017 111.1C137.288 111.934 145.569 113.954 154.51 117.046C158.237 120.606 165.889 124.019 165.322 126.625C164.441 130.706 155.981 132.249 155.981 132.249C162.236 137.253 166.859 141.608 167.007 144.203V144.199Z" fill="#B9E246"/>
<path d="M177 137.772C177 149.435 156.055 153.162 156.055 153.162C150.007 154.326 144.02 154.822 140.204 155.179C124.515 156.637 102.903 150.917 100.426 133.839C97.7782 115.521 110.097 108.835 130.02 111.1C124.352 117.146 111.44 134.107 138.266 140.002C141.757 140.77 144.901 141.216 147.735 141.395C154.549 141.825 159.495 140.701 162.81 138.699C168.983 134.968 169.507 128.212 165.936 122.863C171.499 126.497 177 131.636 177 137.776V137.772Z" fill="#D3D8AF"/>
<path d="M75.8008 115.176C75.8008 115.176 71.8253 108.474 63.1251 115.176C56.4321 120.334 57.5541 139.584 73.1841 149.101C70.6218 148.714 67.8538 148.116 65.0508 147.205C65.0508 147.205 61.3238 149.439 62.0692 154.407H88.4764C88.4764 154.407 88.4958 154.31 88.5113 154.151C89.4276 154.26 90.3671 154.349 91.3338 154.407C91.3338 154.407 106.618 119.152 75.8008 115.176Z" fill="#D6D450"/>
<path d="M57.3988 154.442H51.4356C48.9471 148.772 53.6718 149.621 53.6718 149.621C55.2752 141.271 54.5143 136.174 53.5592 130.694H62.1779C62.7952 144.385 57.3988 154.442 57.3988 154.442Z" fill="#242309"/>
<path d="M62.1779 130.694H53.5592C52.8565 126.598 52.0529 122.285 52.0529 116.227C52.0529 113.202 52.4838 107.908 52.9419 103.199C53.4117 98.3783 53.897 94.1778 53.9552 93.6348C53.963 93.5961 53.963 93.5767 53.963 93.5767C57.5502 95.5198 56.1759 97.0557 56.6689 103.482C56.9213 106.81 57.6744 111.453 59.8834 118.147C60.0193 118.543 60.1358 118.946 60.2561 119.338C61.4402 123.294 62.0148 127.114 62.1818 130.69L62.1779 130.694Z" fill="#B9E246"/>
<path d="M102.647 154.337C101.393 154.271 100.17 154.174 98.9857 154.046C96.4894 153.794 94.1406 153.406 91.9161 152.906C76.5268 149.45 67.3258 140.565 61.8401 130.694C60.8618 128.937 59.9999 127.149 59.2468 125.353C59.1575 125.136 59.0682 124.915 58.9866 124.698C55.8265 116.96 54.5725 109.168 54.1105 103.312C53.6796 97.9051 53.9164 94.1507 53.9552 93.6348C53.963 93.5961 53.963 93.5767 53.963 93.5767L62.9194 87.9024C62.9854 89.6322 63.1446 92.1572 63.5289 95.0544C63.8705 97.6375 64.3869 100.523 65.1828 103.366C66.064 106.523 67.2714 109.653 68.9408 112.314C69.4338 113.105 69.9696 113.85 70.5597 114.54C71.2818 115.413 72.0816 116.208 72.9551 116.886C73.4171 117.267 73.9101 117.6 74.4226 117.907C81.0418 121.832 89.2063 129.309 95.0996 137.699C95.845 138.757 96.5554 139.828 97.2154 140.918C99.9446 145.359 101.936 149.959 102.651 154.341L102.647 154.337Z" fill="#DBE2BB"/>
<path d="M109.274 154.403C106.972 154.477 104.763 154.45 102.647 154.337C101.754 148.884 98.8964 143.097 95.0918 137.699C89.2024 129.313 81.038 121.832 74.4148 117.907C73.8985 117.6 73.4093 117.267 72.9473 116.886C71.3827 115.665 70.055 114.094 68.9369 112.314C67.2675 109.653 66.0601 106.527 65.1789 103.366C64.383 100.519 63.8667 97.6375 63.525 95.0544C63.1368 92.1571 62.9815 89.6322 62.9155 87.9024L68.6419 84.2683C75.8241 87.9645 81.927 91.6646 87.1098 95.3453C130.386 126.005 109.278 154.407 109.278 154.407L109.274 154.403Z" fill="#B9E246"/>
<path d="M98.9857 154.046C96.4894 153.794 94.1406 153.406 91.9161 152.906C76.5268 149.45 67.3258 140.565 61.8401 130.694C60.8618 128.937 59.9999 127.149 59.2468 125.353C59.1575 125.136 59.0682 124.915 58.9866 124.698C62.834 126.517 70.4626 128.347 70.5597 114.536C70.5752 112.415 70.4122 109.917 70.0317 106.992C70.0317 106.992 74.9156 113.993 77.1906 114.552C79.4579 115.11 84.7378 103.692 93.7485 115.168L98.9896 154.043L98.9857 154.046Z" fill="#D3D8AF"/>
<path d="M93.7408 115.176C93.7408 115.176 89.7653 108.47 81.0651 115.176C72.365 121.878 76.8412 152.421 109.274 154.407C109.274 154.407 124.558 119.152 93.7408 115.176Z" fill="#B9E246"/>
<path d="M70.878 154.442H64.9149C62.4302 148.772 67.1511 149.621 67.1511 149.621C68.1061 146.084 67.943 138.164 66.9181 130.694H75.6571C76.2744 144.385 70.878 154.442 70.878 154.442Z" fill="#242309"/>
<path d="M75.6571 130.694H66.9181C66.3358 126.478 65.4856 122.409 64.4141 119.357C61.4325 110.879 63.6687 93.8249 63.6687 93.8249C69.1194 96.7687 66.9026 98.5412 73.3627 118.151C74.803 122.53 75.4785 126.761 75.6571 130.694Z" fill="#B9E246"/>
<path d="M87.1098 95.3453C82.0241 99.8948 75.2534 102.028 68.9757 102.943C67.6791 103.137 66.4095 103.269 65.1789 103.366C64.4024 103.424 63.6493 103.471 62.9194 103.51C60.5784 103.607 58.447 103.575 56.665 103.486C55.6945 103.44 54.8365 103.374 54.1066 103.316C53.6679 103.277 53.2719 103.234 52.9381 103.203C53.4078 98.3822 53.8931 94.1817 53.9513 93.6387C53.9591 93.6 53.9591 93.5806 53.9591 93.5806L68.6419 84.2721C75.8241 87.9684 81.927 91.6685 87.1098 95.3492V95.3453Z" fill="#D3D8AF"/>
<path d="M80.0014 52.639C80.0014 52.639 84.3224 67.4588 75.2107 84.1519C72.0854 88.3911 68.1488 92.2813 63.2377 95.5159C50.1584 104.13 36.7529 103.738 25.7039 100.473C11.0017 96.1365 0.480774 86.7117 0.480774 86.7117C0.480774 86.7117 0.484656 86.704 0.504068 86.6923C0.79912 86.4441 3.54001 84.2644 7.74839 82.9224C8.17932 82.7789 8.6219 82.6548 9.08389 82.5385C9.11883 82.5307 9.16154 82.5152 9.19648 82.5113C9.35954 82.4725 9.53035 82.4298 9.70506 82.3949C9.9147 82.3484 10.1282 82.3019 10.3418 82.2592C10.6329 82.201 10.9163 82.1545 11.2191 82.1079C11.2424 82.1079 11.2657 82.1079 11.2774 82.1002C11.4637 82.0769 11.6423 82.0536 11.8287 82.0304C12.7449 81.9179 13.7116 81.8675 14.7015 81.883C15.7226 81.9024 16.7863 81.9993 17.8695 82.1971C18.0947 82.2359 18.3159 82.2825 18.5372 82.329C19.17 82.4686 19.8106 82.6354 20.4551 82.8449C20.7113 82.9185 20.9637 83.0078 21.216 83.097C21.216 83.097 33.3908 62.6572 62.6981 55.1989C67.9159 53.8647 73.6694 52.9493 79.9975 52.6352L80.0014 52.639Z" fill="#DBE2BB"/>
<path d="M4.61151 13.4041C1.40476 14.0983 -3.8829 36.1787 10.1942 44.2809L21.9381 27.1728C12.8924 24.2251 8.47049 12.5702 4.61151 13.4041Z" fill="#B9E246"/>
<path d="M3.87776 20.3505C2.34815 20.7422 0.368189 35.8723 10.6484 43.6138L18.0946 32.7656C18.0946 32.7656 11.5142 31.6098 8.01239 30.295L11.6889 28.4411C11.6889 28.4411 9.93411 27.1922 6.3003 26.6337L8.78496 25.09C8.78496 25.09 5.89266 19.8347 3.87776 20.3505Z" fill="#D6D450"/>
<path d="M0.50795 86.6962C3.81177 83.7602 4.19223 77.0465 4.66587 68.8085C4.66587 68.8008 4.66587 68.793 4.66587 68.7775C4.87939 64.9417 5.12397 60.7839 5.69467 56.5214C5.69855 56.4749 5.70631 56.4128 5.71796 56.3624C6.17607 52.9416 6.85547 49.4548 7.90368 46.0301C10.2719 38.308 14.5346 30.8884 22.5088 25.1288C24.3839 23.783 26.3134 22.6621 28.2779 21.7661C42.5374 15.2541 58.6605 19.9316 67.4694 25.2646C77.4973 31.3305 86.2286 30.3609 86.2286 30.3609C86.2286 30.3609 91.5123 62.0755 75.2029 84.148C84.3146 67.4588 79.9936 52.6352 79.9936 52.6352C44.8125 77.6283 18.5761 80.0989 18.5761 80.0989C8.94413 85.7654 0.50795 86.6962 0.50795 86.6962Z" fill="#B9E246"/>
<path d="M23.394 74.0872C23.394 74.0872 24.8653 71.3063 25.0517 62.3159C25.238 53.3255 27.1559 36.8264 33.0608 35.3448C38.9658 33.8632 50.6281 47.3022 53.8465 53.9771C53.8465 53.9771 52.8177 66.4892 23.394 74.0911V74.0872Z" fill="#D6D450"/>
<path d="M17.3493 75.0995C20.8122 70.4414 24.1238 38.308 17.4424 39.2349C7.49993 40.6157 5.22491 76.6819 5.22491 76.6819C5.22491 76.6819 12.1509 77.1628 17.3493 75.0995Z" fill="#D6D450"/>
<path d="M13.8125 81.4098C13.1215 83.2133 19.3215 85.2689 20.4978 84.9431C21.6741 84.6212 23.8637 79.839 23.3008 78.3846C22.7379 76.9301 14.5191 79.5598 13.8125 81.4098Z" fill="#242309"/>
<path d="M35.8134 26.6414C36.0929 27.6072 34.1051 29.0345 31.3681 29.8296C28.6311 30.6247 26.1853 30.4889 25.9019 29.5232C25.6224 28.5574 27.6101 27.1301 30.3471 26.335C33.0841 25.5399 35.5299 25.6757 35.8134 26.6414Z" fill="#242309"/>
<path d="M18.7158 31.2569C19.073 32.1954 17.5822 33.6383 15.3809 34.476C13.1797 35.3138 11.1066 35.2323 10.7494 34.2937C10.3922 33.3551 11.883 31.9123 14.0843 31.0746C16.2855 30.2368 18.3586 30.3183 18.7158 31.2569Z" fill="#242309"/>
<path d="M86.2363 30.3648C86.2363 30.3648 77.5051 31.3344 67.4772 25.2684C58.6683 19.9355 42.5452 15.258 28.2856 21.77C36.5238 22.7203 53.1982 26.0519 55.9235 37.5749C55.9235 37.5749 68.3817 45.3552 71.3478 58.3327C71.3478 58.3327 74.112 99.3867 25.7039 100.477C36.749 103.738 50.1545 104.134 63.2377 95.5198C68.1488 92.2851 72.0854 88.395 75.2107 84.1558C91.5201 62.0832 86.2363 30.3687 86.2363 30.3687V30.3648Z" fill="#D3D8AF"/>
<path d="M25.8786 73.3348C28.0255 66.9507 23.0407 45.2621 33.0103 41.3836C40.1848 38.5911 51.5909 54.2215 51.1794 57.6385C50.1583 66.082 25.8786 73.3348 25.8786 73.3348Z" fill="white"/>
<path d="M25.8786 73.3348C28.0255 66.9507 23.0407 45.2621 33.0103 41.3836C40.1848 38.5911 51.5909 54.2215 51.1794 57.6385C50.1583 66.082 25.8786 73.3348 25.8786 73.3348Z" fill="black"/>
<path d="M48.885 61.2998C52.7051 71.3024 50.3796 81.4835 43.6827 84.0356C36.9897 86.5876 28.4642 80.5488 24.6402 70.5422C20.8161 60.5396 23.1455 50.3585 29.8424 47.8064C36.5354 45.2544 45.0609 51.2932 48.885 61.2998Z" fill="#242309"/>
<path d="M39.7577 49.6681C40.0256 52.5537 38.7406 55.0321 36.8926 55.2027C35.0447 55.3734 33.3287 53.1704 33.0608 50.2848C32.7929 47.3992 34.078 44.9208 35.9259 44.7502C37.7739 44.5795 39.4899 46.7825 39.7577 49.6681Z" fill="white"/>
<path d="M25.3002 73.8933L25.5292 73.2145C26.197 71.2287 26.1543 67.6838 26.1038 63.5803C25.9951 54.7528 25.8631 43.765 32.8783 41.0346C35.2465 40.1115 38.2708 40.9958 41.6173 43.5944C46.8934 47.6862 51.8433 55.2377 51.5482 57.6811C50.5078 66.2642 26.9889 73.3891 25.9873 73.6877L25.3002 73.8933ZM34.8311 41.4224C34.2566 41.4224 33.6897 41.5155 33.1423 41.7288C26.6046 44.2731 26.7366 54.9739 26.8414 63.5726C26.888 67.327 26.9268 70.6198 26.4182 72.7763C30.2656 71.5506 49.9176 64.9417 50.8067 57.5919C51.0552 55.5518 46.4702 48.299 41.1592 44.18C39.4239 42.8342 37.0673 41.4185 34.8311 41.4185V41.4224Z" fill="#242309"/>
<path d="M16.5262 75.1964C16.5262 75.1964 11.4598 77.4227 8.1405 76.4298C5.65973 75.689 9.75941 47.8646 16.1923 46.2705C21.4023 44.979 21.3208 69.6114 16.5262 75.2003V75.1964Z" fill="white"/>
<path d="M16.5262 75.1964C16.5262 75.1964 11.4598 77.4227 8.1405 76.4298C5.65973 75.689 9.75941 47.8646 16.1923 46.2705C21.4023 44.979 21.3208 69.6114 16.5262 75.2003V75.1964Z" fill="black"/>
<path d="M25.5486 70.8642C24.9313 81.6231 20.5754 90.1248 15.8196 89.8533C11.0639 89.5818 7.70957 80.638 8.32685 69.879C8.94413 59.12 13.3 50.6184 18.0558 50.8898C22.8116 51.1613 26.1659 60.1052 25.5486 70.8642Z" fill="#242309"/>
<path d="M20.9054 53.7289C20.9481 56.4439 19.5505 59.186 17.788 59.8531C16.0254 60.5163 14.5618 58.8563 14.5191 56.1375C14.4764 53.4225 15.874 50.6804 17.6365 50.0133C19.3991 49.3501 20.8627 51.0101 20.9054 53.7289Z" fill="white"/>
<path d="M20.9054 53.7289C20.9481 56.4439 19.5505 59.186 17.788 59.8531C16.0254 60.5163 14.5618 58.8563 14.5191 56.1375C14.4764 53.4225 15.874 50.6804 17.6365 50.0133C19.3991 49.3501 20.8627 51.0101 20.9054 53.7289Z" fill="white"/>
<path d="M10.101 77.0542C9.38283 77.0542 8.68014 76.9767 8.03568 76.7828C7.56981 76.6431 6.96029 76.0458 7.0457 72.4699C7.21652 65.3722 10.598 47.2712 16.103 45.906C16.763 45.7431 17.7297 45.8362 18.5799 47.2169C21.5693 52.0573 20.9636 70.5965 16.8096 75.4369L16.7553 75.5028L16.6776 75.5378C16.5068 75.6114 13.1758 77.0581 10.101 77.0581V77.0542ZM16.5806 46.5847C16.4486 46.5847 16.3437 46.6119 16.2816 46.6274C12.0461 47.6784 8.39673 62.1104 7.84157 71.1977C7.61251 74.9637 8.06674 76.0032 8.24532 76.073C11.1803 76.9495 15.6566 75.1577 16.2972 74.89C20.2726 70.1001 20.8317 52.2822 17.9471 47.6086C17.4153 46.7476 16.9106 46.5886 16.5806 46.5886V46.5847Z" fill="#242309"/>
<path d="M25.8786 89.8456C25.8786 89.8456 42.5064 95.3647 47.3282 76.0846C47.3282 76.0846 52.4062 103.932 25.8786 89.8456Z" fill="#242309"/>
<path d="M25.8786 89.8456C25.8786 89.8456 42.5064 95.3647 47.3282 76.0846C47.3282 76.0846 52.4062 103.932 25.8786 89.8456Z" fill="black"/>
<path d="M34.6487 95.6362C34.6487 95.6362 34.8234 92.8204 35.4484 92.5489C36.0773 92.2774 37.0712 93.2586 37.0712 93.2586C37.0712 93.2586 39.5792 92.1998 41.0738 91.874C41.0738 91.874 41.5746 90.1132 42.1415 90.1597C42.9684 90.2218 44.894 92.4907 44.894 92.4907C44.894 92.4907 42.518 101.202 34.6448 95.64L34.6487 95.6362Z" fill="white"/>
<path d="M38.3951 94.3679C34.9631 94.3679 30.6926 93.0182 25.6224 90.3265C25.37 90.1946 25.2652 89.8921 25.3778 89.6322C25.4904 89.3724 25.7816 89.2405 26.0533 89.3297C26.1193 89.353 32.6804 91.459 38.5465 88.2321C42.5374 86.0369 45.3133 81.9063 46.8041 75.9566C46.8662 75.7084 47.0797 75.53 47.3515 75.5416C47.6077 75.5494 47.8251 75.7356 47.8717 75.9877C47.961 76.488 50.0302 88.2709 43.9234 92.7273C42.4287 93.821 40.5808 94.364 38.3989 94.364L38.3951 94.3679ZM29.6716 91.0789C35.7706 93.7318 40.3362 93.9917 43.2751 91.8469C47.1768 88.9962 47.3476 82.488 47.0914 78.819C45.4064 83.702 42.7122 87.1849 39.0589 89.1901C35.7202 91.0246 32.2417 91.269 29.6716 91.0789Z" fill="#242309"/>
<path d="M29.9899 91.5133C29.9899 91.5133 28.2973 111.906 31.174 111.906C34.0508 111.906 30.5762 94.4261 31.174 93.4603C31.7719 92.4946 33.6082 92.8126 34.144 94.108C34.4274 94.7984 32.7541 99.3906 34.5167 99.3906C36.2792 99.3906 35.1689 92.8824 35.1689 92.8824C35.1689 92.8824 32.4086 91.5948 29.9938 91.5133H29.9899Z" fill="#C7A6E2"/>
<path d="M43.7798 71.3063C40.3401 72.881 42.3006 76.2708 43.081 77.6283C44.7193 80.4828 44.5329 84.3963 42.5413 86.4596C42.5413 86.4596 46.1751 85.1099 47.6931 82.2437C50.2903 77.3296 49.4557 68.7116 43.7837 71.3063H43.7798Z" fill="#D6A824"/>
<path d="M44.8979 85.1952C44.8979 85.1952 47.2272 81.3943 46.2062 75.0995C46.2062 75.0995 48.1551 78.7375 46.2062 84.1519L44.8979 85.1991V85.1952Z" fill="#BEA256"/>
<path d="M55.9196 37.5711C52.0257 34.2821 48.0037 31.7184 44.2068 29.7365C38.0107 26.494 32.4319 24.772 29.0621 23.8954C26.9695 23.3525 25.7311 23.1353 25.7117 23.081C21.9226 10.8869 23.2891 1.22558 26.1115 0.0736619C28.2041 -0.771852 41.0078 5.88754 49.9215 18.2406C52.2354 21.4365 61.5412 36.966 55.9196 37.5711Z" fill="#B9E246"/>
<path d="M45.8684 28.8754C45.5384 29.337 44.96 29.6162 44.2068 29.7326C38.6163 23.7558 32.5018 23.3602 29.0621 23.8916C28.2313 21.7002 30.3782 19.2102 30.3782 19.2102L27.3539 20.4785L27.8702 13.5476L25.9757 14.8857C25.9757 14.8857 25.2536 5.1545 27.6722 4.51843C32.8628 3.15707 48.19 25.6253 45.8684 28.8754Z" fill="#D6D450"/>
<path d="M103.932 149.621C103.932 149.621 93.6786 150.68 82.9946 147.205C82.9946 147.205 79.2676 149.439 80.013 154.407H106.42C106.42 154.407 107.166 150.552 103.936 149.625L103.932 149.621Z" fill="#242309"/>
</svg>
